<?xml version="1.0" encoding="UTF-8" standalone="no"?>
<!DOCTYPE svg PUBLIC "-//W3C//DTD SVG 1.1//EN" "http://www.w3.org/Graphics/SVG/1.1/DTD/svg11.dtd">
<!-- Создано Microsoft Visio, экспорт SVG v2_center_en2.svg Page-1 -->
<svg xmlns="http://www.w3.org/2000/svg" xmlns:xlink="http://www.w3.org/1999/xlink" xmlns:ev="http://www.w3.org/2001/xml-events"
		width="11.6929in" height="8.26772in" viewBox="0 0 841.89 595.276" xml:space="preserve" color-interpolation-filters="sRGB"
		class="st19">
	<style type="text/css">
	<![CDATA[
		.st1 {fill:url(#grad0-4);stroke:#4f87bb;stroke-width:0.75}
		.st2 {visibility:visible}
		.st3 {fill:#5b9bd5;fill-opacity:0.22;filter:url(#filter_2);stroke:#5b9bd5;stroke-opacity:0.22}
		.st4 {fill:#5b9bd5;stroke:#c7c8c8;stroke-width:0.25}
		.st5 {fill:#1e4a73;font-family:Calibri;font-size:0.833336em}
		.st6 {fill:#feffff;font-family:Calibri;font-size:0.833336em}
		.st7 {font-size:1em}
		.st8 {marker-end:url(#mrkr4-35);stroke:#5b9bd5;stroke-linecap:round;stroke-linejoin:round;stroke-width:1}
		.st9 {fill:#5b9bd5;fill-opacity:1;stroke:#5b9bd5;stroke-opacity:1;stroke-width:0.28409090909091}
		.st10 {fill:none;filter:url(#filter_2);stroke:#5b9bd5;stroke-opacity:0.22}
		.st11 {stroke:#c7c8c8;stroke-width:0.25}
		.st12 {fill:#feffff;stroke:#c7c8c8;stroke-width:0.25}
		.st13 {fill:none;filter:url(#filter_2);stroke:none}
		.st14 {fill:#5b9bd5;filter:url(#filter_2);font-family:Calibri;font-size:0.833336em;opacity:0.219608}
		.st15 {fill:none;stroke:none;stroke-width:0.25}
		.st16 {fill:#ffffff;stroke:none;stroke-linecap:butt;stroke-width:7.2}
		.st17 {fill:#4f87bb;font-family:Calibri;font-size:0.666664em}
		.st18 {fill:#ffffff;stroke:none;stroke-linecap:butt}
		.st19 {fill:none;fill-rule:evenodd;font-size:12px;overflow:visible;stroke-linecap:square;stroke-miterlimit:3}
	]]>
	</style>

	<defs id="Patterns_And_Gradients">
		<linearGradient id="grad0-4" x1="0" y1="0" x2="1" y2="0" gradientTransform="rotate(60 0.5 0.5)">
			<stop offset="0" stop-color="#e9eff7" stop-opacity="1"/>
			<stop offset="0.24" stop-color="#f4f7fb" stop-opacity="1"/>
			<stop offset="0.54" stop-color="#feffff" stop-opacity="1"/>
		</linearGradient>
	</defs>
	<defs id="Markers">
		<g id="lend4">
			<path d="M 2 1 L 0 0 L 2 -1 L 2 1 " style="stroke:none"/>
		</g>
		<marker id="mrkr4-35" class="st9" refX="-7.04" orient="auto" markerUnits="strokeWidth" overflow="visible">
			<use xlink:href="#lend4" transform="scale(-3.52,-3.52) "/>
		</marker>
	</defs>
	<defs id="Filters">
		<filter id="filter_2">
			<feGaussianBlur stdDeviation="2"/>
		</filter>
	</defs>
	<g>
		<title>Страница-1</title>
		<g id="shape50-1" transform="translate(128.268,-286.929)">
			<title>Прямоугольник.50</title>
			<rect x="0" y="552.756" width="143.858" height="42.5197" class="st1"/>
		</g>
		<g id="group41-5" transform="translate(52.0157,-279.843)">
			<title>Пользователь</title>
			<desc>User</desc>
			<g id="shape42-6" transform="translate(18.0575,0)">
				<title>Лист.42</title>
				<g id="shadow42-7" transform="matrix(1,0,0,1,0.345598,1.97279)" class="st2">
					<path d="M26.29 533.22 A8.81 8.81 -180 1 0 8.67 533.22 A8.81 8.81 -180 1 0 26.29 533.22 ZM27.58 544.41 L7.17
								 544.41 C3.22 544.41 0 547.62 0 551.58 L0 576.58 L5.59 576.58 L5.59 562.03 L7.45 562.03 L7.45 595.28
								 L16.55 595.28 L16.55 580.42 C16.55 579.9 16.97 579.48 17.48 579.48 C18 579.48 18.42 579.9 18.42
								 580.42 L18.42 595.28 L28.04 595.28 L28.04 561.98 L29.91 561.98 L29.91 576.58 L34.75 576.58 L34.75
								 551.58 C34.75 547.62 31.54 544.41 27.58 544.41 Z" class="st3"/>
				</g>
				<path d="M26.29 533.22 A8.81 8.81 -180 1 0 8.67 533.22 A8.81 8.81 -180 1 0 26.29 533.22 ZM27.58 544.41 L7.17 544.41
							 C3.22 544.41 0 547.62 0 551.58 L0 576.58 L5.59 576.58 L5.59 562.03 L7.45 562.03 L7.45 595.28 L16.55
							 595.28 L16.55 580.42 C16.55 579.9 16.97 579.48 17.48 579.48 C18 579.48 18.42 579.9 18.42 580.42 L18.42
							 595.28 L28.04 595.28 L28.04 561.98 L29.91 561.98 L29.91 576.58 L34.75 576.58 L34.75 551.58 C34.75 547.62
							 31.54 544.41 27.58 544.41 Z" class="st4"/>
			</g>
			<g id="shape41-11">
				<g id="shadow41-12" transform="matrix(1,0,0,1,0.345598,1.97279)" class="st2"/>
				<text x="26.04" y="608.28" class="st5">User</text>			</g>
		</g>
		<g id="shape44-14" transform="translate(204.094,-294.016)">
			<title>Прямоугольник.44</title>
			<desc>HotSpot</desc>
			<g id="shadow44-15" transform="matrix(1,0,0,1,0.345598,1.97279)" class="st2">
				<rect x="0" y="566.929" width="52.4409" height="28.3464" class="st3"/>
			</g>
			<rect x="0" y="566.929" width="52.4409" height="28.3464" class="st4"/>
			<text x="9.56" y="584.1" class="st6">HotSpot</text>		</g>
		<g id="shape49-20" transform="translate(140.315,-294.016)">
			<title>Прямоугольник.49</title>
			<desc>NetFlow sensor</desc>
			<g id="shadow49-21" transform="matrix(1,0,0,1,0.345598,1.97279)" class="st2">
				<rect x="0" y="566.929" width="52.4409" height="28.3464" class="st3"/>
			</g>
			<rect x="0" y="566.929" width="52.4409" height="28.3464" class="st4"/>
			<text x="9.17" y="578.1" class="st6">NetFlow <tspan x="12.81" dy="1.2em" class="st7">sensor</tspan></text>		</g>
		<g id="shape54-27" transform="translate(606.614,-107.087)">
			<title>Прямоугольник.54</title>
			<rect x="0" y="188.504" width="187.087" height="406.772" class="st1"/>
		</g>
		<g id="shape91-30" transform="translate(701.15,-350.866)">
			<title>Динамическая соединительная линия.91</title>
			<path d="M0 595.28 L0 584.65 L51.02 584.65 L51.02 562.63" class="st8"/>
		</g>
		<g id="group55-36" transform="translate(712.488,-141.102)">
			<title>Почтовый сервер</title>
			<desc>Kannel SMS GW</desc>
			<g id="shape56-37" transform="translate(20.1665,-26.7302)">
				<title>Лист.56</title>
				<g id="shadow56-38" transform="matrix(1,0,0,1,0.345598,1.97279)" class="st2">
					<path d="M0 595.28 L28.27 595.28" class="st10"/>
				</g>
				<path d="M0 595.28 L28.27 595.28" class="st11"/>
			</g>
			<g id="shape57-45" transform="translate(49.4612,-65.998)">
				<title>Лист.57</title>
				<g id="shadow57-46" transform="matrix(1,0,0,1,0.345598,1.97279)" class="st2"/>
			</g>
			<g id="shape58-47" transform="translate(48.6027,-32.4471)">
				<title>Лист.58</title>
				<g id="shadow58-48" transform="matrix(1,0,0,1,0.345598,1.97279)" class="st2"/>
			</g>
			<g id="shape59-49" transform="translate(44.3426,-73.7008)">
				<title>Лист.59</title>
				<g id="shadow59-50" transform="matrix(1,0,0,1,0.345598,1.97279)" class="st2"/>
			</g>
			<g id="shape60-51" transform="translate(48.4395,-9.52163)">
				<title>Лист.60</title>
				<g id="shadow60-52" transform="matrix(1,0,0,1,0.345598,1.97279)" class="st2">
					<rect x="0" y="559.94" width="22.4266" height="35.3356" class="st3"/>
				</g>
				<rect x="0" y="559.94" width="22.4266" height="35.3356" class="st12"/>
			</g>
			<g id="shape61-56" transform="translate(0,-15.3133)">
				<title>Лист.61</title>
				<g id="shadow61-57" transform="matrix(1,0,0,1,0.345598,1.97279)" class="st2">
					<path d="M0 576.15 L14.97 562.4 L0 548.92 L0 576.15 ZM18.84 565.14 L21.93 565.14 C22.45 565.14 22.99 564.91 23.34
								 564.6 L40.79 548.92 L0.01 548.92 L17.43 564.6 C17.74 564.88 18.33 565.14 18.84 565.14 ZM40.9 576.15
								 L25.8 562.38 L23.34 564.6 C22.99 564.91 22.4 565.14 21.93 565.14 L18.84 565.14 C18.37 565.14 17.78
								 564.91 17.43 564.6 L14.98 562.39 L0 576.15 L40.9 576.15 ZM40.9 576.15 L40.9 548.83 L25.81 562.39
								 L40.9 576.15 ZM57.08 595.28 L68.02 595.28 L68.02 594.39 L57.08 594.39 L57.08 595.28 ZM57.08 592.6
								 L68.02 592.6 L68.02 591.71 L57.08 591.71 L57.08 592.6 ZM57.08 589.92 L68.02 589.92 L68.02 589.03
								 L57.08 589.03 L57.08 589.92 ZM67.79 584.62 A1.35587 1.3638 -180 1 0 65.08 584.62 A1.35587 1.3638
								 -180 1 0 67.79 584.62 Z" class="st3"/>
				</g>
				<path d="M0 576.15 L14.97 562.4 L0 548.92 L0 576.15 ZM18.84 565.14 L21.93 565.14 C22.45 565.14 22.99 564.91 23.34
							 564.6 L40.79 548.92 L0.01 548.92 L17.43 564.6 C17.74 564.88 18.33 565.14 18.84 565.14 ZM40.9 576.15
							 L25.8 562.38 L23.34 564.6 C22.99 564.91 22.4 565.14 21.93 565.14 L18.84 565.14 C18.37 565.14 17.78 564.91
							 17.43 564.6 L14.98 562.39 L0 576.15 L40.9 576.15 ZM40.9 576.15 L40.9 548.83 L25.81 562.39 L40.9 576.15
							 ZM57.08 595.28 L68.02 595.28 L68.02 594.39 L57.08 594.39 L57.08 595.28 ZM57.08 592.6 L68.02 592.6 L68.02
							 591.71 L57.08 591.71 L57.08 592.6 ZM57.08 589.92 L68.02 589.92 L68.02 589.03 L57.08 589.03 L57.08 589.92
							 ZM67.79 584.62 A1.35587 1.3638 -180 1 0 65.08 584.62 A1.35587 1.3638 -180 1 0 67.79 584.62 Z"
						class="st4"/>
			</g>
			<g id="shape55-61">
				<g id="shadow55-62" transform="matrix(1,0,0,1,0.345598,1.97279)" class="st2"/>
				<text x="2.82" y="608.28" class="st5">Kannel SMS GW</text>			</g>
		</g>
		<g id="shape63-64" transform="translate(631.63,-243.15)">
			<title>Прямоугольник.63</title>
			<desc>Password Sender Web API</desc>
			<g id="shadow63-65" transform="matrix(1,0,0,1,0.345598,1.97279)" class="st2">
				<rect x="0" y="547.087" width="137.055" height="48.189" class="st3"/>
			</g>
			<rect x="0" y="547.087" width="137.055" height="48.189" class="st4"/>
			<text x="15.1" y="574.18" class="st6">Password Sender Web API</text>		</g>
		<g id="shape67-70" transform="translate(765.266,-267.244)">
			<title>Динамическая соединительная линия.67</title>
			<path d="M3.42 595.28 L10.75 595.28 L10.75 669.52" class="st8"/>
		</g>
		<g id="group18-75" transform="translate(624.523,-141.102)">
			<title>База данных</title>
			<desc>DB for logs Time:MAC:Phone</desc>
			<g id="shape19-76" transform="translate(3.40011,0)">
				<title>Лист.19</title>
				<g id="shadow19-77" transform="matrix(1,0,0,1,0.345598,1.97279)" class="st2">
					<path d="M0 535.22 L0 584.59 A32.033 10.6903 -180 1 0 64.07 584.59 L64.07 535.1 A32.033 10.6903 0 0 1 0 535.22
								 ZM64.07 535.1 A32.033 10.6903 -180 1 0 0 535.1 A32.033 10.6903 -180 1 0 64.07 535.1 Z" class="st3"/>
				</g>
				<path d="M0 535.22 L0 584.59 A32.033 10.6903 -180 1 0 64.07 584.59 L64.07 535.1 A32.033 10.6903 0 0 1 0 535.22 ZM64.07
							 535.1 A32.033 10.6903 -180 1 0 0 535.1 A32.033 10.6903 -180 1 0 64.07 535.1 Z" class="st4"/>
			</g>
			<g id="shape18-81">
				<g id="shadow18-82" transform="matrix(1,0,0,1,0.345598,1.97279)" class="st2"/>
				<text x="13.38" y="608.28" class="st5">DB for logs <tspan x="-0.1" dy="1.2em" class="st7">Time</tspan>:MAC:Phone</text>			</g>
		</g>
		<g id="shape71-85" transform="translate(700.157,-267.244)">
			<title>Динамическая соединительная линия.71</title>
			<path d="M0 595.28 L0 630 L-40.2 630 L-40.2 643.51" class="st8"/>
		</g>
		<g id="shape72-90" transform="translate(122.425,-262.677)">
			<title>Лист.72</title>
			<desc>MikroTik RB951Ui-2HnD</desc>
			<g id="shadow72-91" transform="matrix(1,0,0,1,0.345598,1.97279)" class="st2">
				<rect x="0" y="575.276" width="152" height="20" class="st13"/>
				<text x="26.66" y="588.28" class="st14">MikroTik RB951Ui-2HnD</text>			</g>
			<rect x="0" y="575.276" width="152" height="20" class="st15"/>
			<text x="26.66" y="588.28" class="st5">MikroTik RB951Ui-2HnD</text>		</g>
		<g id="shape74-98" transform="translate(627.449,-81.4173)">
			<title>Лист.74</title>
			<desc>Ubuntu server</desc>
			<g id="shadow74-99" transform="matrix(1,0,0,1,0.345598,1.97279)" class="st2">
				<rect x="0" y="575.276" width="152" height="20" class="st13"/>
				<text x="46.8" y="588.28" class="st14">Ubuntu server</text>			</g>
			<rect x="0" y="575.276" width="152" height="20" class="st15"/>
			<text x="46.8" y="588.28" class="st5">Ubuntu server</text>		</g>
		<g id="shape75-106" transform="translate(632.622,-322.52)">
			<title>Прямоугольник.75</title>
			<desc>Captive Portal</desc>
			<g id="shadow75-107" transform="matrix(1,0,0,1,0.345598,1.97279)" class="st2">
				<rect x="0" y="566.929" width="137.055" height="28.3464" class="st3"/>
			</g>
			<rect x="0" y="566.929" width="137.055" height="28.3464" class="st4"/>
			<text x="39.96" y="584.1" class="st6">Captive Portal</text>		</g>
		<g id="shape76-112" transform="translate(769.677,-336.693)">
			<title>Динамическая соединительная линия.76</title>
			<path d="M0 595.28 L7.09 595.28 L7.09 623.06 L-69.52 623.06 L-69.52 633.59" class="st8"/>
		</g>
		<g id="shape45-117" transform="translate(104.824,-301.102)">
			<title>Динамическая соединительная линия</title>
			<path d="M0 588.19 L16.4 588.19" class="st8"/>
		</g>
		<g id="group79-122" transform="translate(251.09,-135.723)">
			<title>Облако.79</title>
			<desc>Internet access</desc>
			<g id="shape80-123" transform="translate(0,-24.6991)">
				<title>Лист.80</title>
				<g id="shadow80-124" transform="matrix(1,0,0,1,0.345598,1.97279)" class="st2">
					<path d="M99.89 546.98 C99.26 541.51 94.29 537.24 88.18 537.24 C86.44 537.24 84.81 537.6 83.33 538.21 C80.45
								 532.84 74.5 528.9 63.34 529.22 C48.83 529.63 31.66 536.16 28.2 547.75 C24.07 548.54 21.41 550.78
								 19.82 553.76 C19.17 553.7 18.52 553.66 17.85 553.66 C8.3 553.66 0.96 560.63 0.55 569.21 C0 580.32
								 8.3 584.76 17.85 584.76 C19.22 584.76 20.53 584.61 21.81 584.34 C23.8 585.63 26.38 586.43 29.22
								 586.43 C31.84 586.43 34.26 585.75 36.18 584.61 C39.85 590.87 47.41 595.28 56.13 594.76 C65.3 594.23
								 70.81 592.27 74.06 589.25 C74.26 589.23 74.45 589.23 74.66 589.21 C84.92 587.89 89.43 585.23 90.88
								 580.86 C91.15 580.86 91.42 580.87 91.69 580.87 C105 580.87 115.77 576.99 115.77 563.38 C115.77 555.82
								 109.13 549.43 99.89 546.98 Z" class="st3"/>
				</g>
				<path d="M99.89 546.98 C99.26 541.51 94.29 537.24 88.18 537.24 C86.44 537.24 84.81 537.6 83.33 538.21 C80.45 532.84
							 74.5 528.9 63.34 529.22 C48.83 529.63 31.66 536.16 28.2 547.75 C24.07 548.54 21.41 550.78 19.82 553.76
							 C19.17 553.7 18.52 553.66 17.85 553.66 C8.3 553.66 0.96 560.63 0.55 569.21 C0 580.32 8.3 584.76 17.85
							 584.76 C19.22 584.76 20.53 584.61 21.81 584.34 C23.8 585.63 26.38 586.43 29.22 586.43 C31.84 586.43
							 34.26 585.75 36.18 584.61 C39.85 590.87 47.41 595.28 56.13 594.76 C65.3 594.23 70.81 592.27 74.06 589.25
							 C74.26 589.23 74.45 589.23 74.66 589.21 C84.92 587.89 89.43 585.23 90.88 580.86 C91.15 580.86 91.42
							 580.87 91.69 580.87 C105 580.87 115.77 576.99 115.77 563.38 C115.77 555.82 109.13 549.43 99.89 546.98
							 Z" class="st4"/>
			</g>
			<g id="shape79-128">
				<g id="shadow79-129" transform="matrix(1,0,0,1,0.345598,1.97279)" class="st2"/>
				<text x="27.15" y="608.28" class="st5">Internet access</text>			</g>
		</g>
		<g id="shape85-131" transform="translate(633.118,-401.89)">
			<title>Прямоугольник.85</title>
			<desc>FreeRADIUS</desc>
			<g id="shadow85-132" transform="matrix(1,0,0,1,0.345598,1.97279)" class="st2">
				<rect x="0" y="566.929" width="70.8661" height="28.3464" class="st3"/>
			</g>
			<rect x="0" y="566.929" width="70.8661" height="28.3464" class="st4"/>
			<text x="10.97" y="584.1" class="st6">FreeRADIUS</text>		</g>
		<g id="group86-137" transform="translate(728.079,-390.551)">
			<title>База данных.86</title>
			<desc>FreeRADIUS DB</desc>
			<g id="shape87-138" transform="translate(2.31208,0)">
				<title>Лист.87</title>
				<g id="shadow87-139" transform="matrix(1,0,0,1,0.345598,1.97279)" class="st2">
					<path d="M0 554.44 L0 588.01 A21.7824 7.26941 -180 1 0 43.56 588.01 L43.56 554.36 A21.7824 7.26941 0 0 1 0 554.44
								 ZM43.56 554.36 A21.7824 7.26941 -180 1 0 0 554.36 A21.7824 7.26941 -180 1 0 43.56 554.36 Z"
							class="st3"/>
				</g>
				<path d="M0 554.44 L0 588.01 A21.7824 7.26941 -180 1 0 43.56 588.01 L43.56 554.36 A21.7824 7.26941 0 0 1 0 554.44
							 ZM43.56 554.36 A21.7824 7.26941 -180 1 0 0 554.36 A21.7824 7.26941 -180 1 0 43.56 554.36 Z"
						class="st4"/>
			</g>
			<g id="shape86-143">
				<g id="shadow86-144" transform="matrix(1,0,0,1,0.345598,1.97279)" class="st2"/>
				<text x="-7.3" y="608.28" class="st5">FreeRADIUS DB</text>			</g>
		</g>
		<g id="shape92-146" transform="translate(703.984,-408.976)">
			<title>Динамическая соединительная линия.92</title>
			<path d="M0 588.19 L19.37 588.19" class="st8"/>
		</g>
		<g id="shape97-151" transform="translate(635.953,-443.526)">
			<title>Прямоугольник.62</title>
			<desc>Nfcapd</desc>
			<g id="shadow97-152" transform="matrix(1,0,0,1,0.345598,1.97279)" class="st2">
				<rect x="0" y="535.857" width="137.055" height="59.4187" class="st3"/>
			</g>
			<rect x="0" y="535.857" width="137.055" height="59.4187" class="st4"/>
			<text x="54.01" y="568.57" class="st6">Nfcapd</text>		</g>
		<g id="shape99-157" transform="translate(166.535,-322.362)">
			<title>Динамическая соединительная линия.99</title>
			<desc>traffic logging</desc>
			<path d="M0 595.28 L0 444.4 L462.38 444.4" class="st8"/>
			<rect x="239.59" y="440.082" width="44.6009" height="9.59985" class="st16"/>
			<text x="239.59" y="447.28" class="st17">traffic logging</text>		</g>
		<g id="group100-164" transform="translate(447.874,-285.959)">
			<title>Облако.100</title>
			<desc>Access only to our server</desc>
			<g id="shape101-165" transform="translate(0,-24.6991)">
				<title>Лист.101</title>
				<g id="shadow101-166" transform="matrix(1,0,0,1,0.345598,1.97279)" class="st2">
					<path d="M99.89 546.98 C99.26 541.51 94.29 537.24 88.18 537.24 C86.44 537.24 84.81 537.6 83.33 538.21 C80.45
								 532.84 74.5 528.9 63.34 529.22 C48.83 529.63 31.66 536.16 28.2 547.75 C24.07 548.54 21.41 550.78
								 19.82 553.76 C19.17 553.7 18.52 553.66 17.85 553.66 C8.3 553.66 0.96 560.63 0.55 569.21 C0 580.32
								 8.3 584.76 17.85 584.76 C19.22 584.76 20.53 584.61 21.81 584.34 C23.8 585.63 26.38 586.43 29.22
								 586.43 C31.84 586.43 34.26 585.75 36.18 584.61 C39.85 590.87 47.41 595.28 56.13 594.76 C65.3 594.23
								 70.81 592.27 74.06 589.25 C74.26 589.23 74.45 589.23 74.66 589.21 C84.92 587.89 89.43 585.23 90.88
								 580.86 C91.15 580.86 91.42 580.87 91.69 580.87 C105 580.87 115.77 576.99 115.77 563.38 C115.77 555.82
								 109.13 549.43 99.89 546.98 Z" class="st3"/>
				</g>
				<path d="M99.89 546.98 C99.26 541.51 94.29 537.24 88.18 537.24 C86.44 537.24 84.81 537.6 83.33 538.21 C80.45 532.84
							 74.5 528.9 63.34 529.22 C48.83 529.63 31.66 536.16 28.2 547.75 C24.07 548.54 21.41 550.78 19.82 553.76
							 C19.17 553.7 18.52 553.66 17.85 553.66 C8.3 553.66 0.96 560.63 0.55 569.21 C0 580.32 8.3 584.76 17.85
							 584.76 C19.22 584.76 20.53 584.61 21.81 584.34 C23.8 585.63 26.38 586.43 29.22 586.43 C31.84 586.43
							 34.26 585.75 36.18 584.61 C39.85 590.87 47.41 595.28 56.13 594.76 C65.3 594.23 70.81 592.27 74.06 589.25
							 C74.26 589.23 74.45 589.23 74.66 589.21 C84.92 587.89 89.43 585.23 90.88 580.86 C91.15 580.86 91.42
							 580.87 91.69 580.87 C105 580.87 115.77 576.99 115.77 563.38 C115.77 555.82 109.13 549.43 99.89 546.98
							 Z" class="st4"/>
			</g>
			<g id="shape100-170">
				<g id="shadow100-171" transform="matrix(1,0,0,1,0.345598,1.97279)" class="st2"/>
				<text x="7.18" y="608.28" class="st5">Access only to our server</text>			</g>
		</g>
		<g id="shape103-173" transform="translate(230.315,-322.362)">
			<title>Динамическая соединительная линия.103</title>
			<desc>authorization</desc>
			<path d="M0 595.28 L0 501.57 L395.76 501.57" class="st8"/>
			<rect x="132.706" y="496.775" width="43.691" height="9.59985" class="st18"/>
			<text x="132.71" y="503.97" class="st17">authorization</text>		</g>
		<g id="shape105-180" transform="translate(272.126,-308.189)">
			<title>Динамическая соединительная линия.105</title>
			<desc>unsuccessful authorization</desc>
			<path d="M0 595.28 L43.94 595.28 L43.94 569.76 L169.33 569.76" class="st8"/>
			<rect x="59.0839" y="564.964" width="86.7217" height="9.59985" class="st16"/>
			<text x="59.08" y="572.16" class="st17">unsuccessful authorization</text>		</g>
		<g id="shape107-187" transform="translate(272.126,-308.189)">
			<title>Динамическая соединительная линия.107</title>
			<desc>successful authorization</desc>
			<path d="M0 595.28 L44.01 595.28 L44.01 669.93" class="st8"/>
			<rect x="3.7201" y="626.414" width="78.3155" height="9.59985" class="st16"/>
			<text x="3.72" y="633.61" class="st17">successful authorization</text>		</g>
		<g id="shape108-194" transform="translate(562.836,-329.606)">
			<title>Динамическая соединительная линия.108</title>
			<path d="M0 588.19 L62.75 588.19" class="st8"/>
		</g>
	</g>
</svg>
